<svg aria-hidden="true" style="position: absolute; width: 0; height: 0; overflow: hidden;" version="1.1" xmlns="http://www.w3.org/2000/svg" xmlns:xlink="http://www.w3.org/1999/xlink">
<defs>
<symbol id="icon-Icono1" viewBox="0 0 32 32">
<path fill="#7dd5f4" style="fill: var(--color1, #7dd5f4)" d="M19.531 28.437c0-0.517-0.42-0.937-0.937-0.937h-0.33l0.233-0.233c0.17-0.17 0.275-0.404 0.275-0.663 0-0.518-0.42-0.937-0.937-0.937-0.259 0-0.493 0.105-0.663 0.275v0l-0.234 0.233v-0.362c0-0.518-0.42-0.937-0.937-0.937s-0.937 0.42-0.937 0.937v0 0.362l-0.256-0.256c-0.17-0.17-0.404-0.275-0.663-0.275-0.518 0-0.937 0.42-0.937 0.937 0 0.259 0.105 0.493 0.275 0.663l0.256 0.256h-0.331c-0.518 0-0.937 0.42-0.937 0.937s0.42 0.937 0.937 0.937h0.33l-0.233 0.235c-0.17 0.17-0.275 0.404-0.275 0.663 0 0.518 0.42 0.937 0.937 0.937 0.259 0 0.493-0.105 0.663-0.275v0l0.233-0.234v0.361c0 0.518 0.42 0.938 0.938 0.938s0.938-0.42 0.938-0.938v0-0.361l0.256 0.256c0.169 0.17 0.404 0.276 0.663 0.276s0.494-0.105 0.663-0.276l0-0c0.366-0.366 0.366-0.96 0-1.326l-0.256-0.256h0.331c0.517 0 0.937-0.421 0.937-0.938zM7.063 22.501c0-0.518-0.421-0.938-0.938-0.938h-0.33l0.233-0.234c0.17-0.17 0.275-0.404 0.275-0.663 0-0.518-0.42-0.937-0.937-0.937-0.259 0-0.493 0.105-0.663 0.275v0l-0.233 0.234v-0.362c0-0.518-0.42-0.938-0.938-0.938s-0.938 0.42-0.938 0.938v0 0.362l-0.256-0.256c-0.17-0.17-0.404-0.275-0.663-0.275-0.518 0-0.937 0.42-0.937 0.937 0 0.259 0.105 0.493 0.275 0.663l0.256 0.256h-0.331c-0.518 0-0.937 0.42-0.937 0.937s0.42 0.937 0.937 0.937v0h0.331l-0.234 0.234c-0.17 0.17-0.275 0.404-0.275 0.663 0 0.518 0.42 0.937 0.937 0.937 0.259 0 0.493-0.105 0.663-0.275v0l0.234-0.233v0.361c0 0.518 0.42 0.937 0.937 0.937s0.937-0.42 0.937-0.937v0-0.361l0.256 0.256c0.169 0.17 0.404 0.276 0.663 0.276s0.494-0.105 0.663-0.276l0-0c0.366-0.366 0.366-0.96 0-1.326l-0.256-0.256h0.332c0.518 0 0.938-0.421 0.938-0.938z"></path>
<path fill="#4793ff" style="fill: var(--color2, #4793ff)" d="M32 22.501c0-0.518-0.421-0.938-0.937-0.938h-0.331l0.234-0.234c0.17-0.17 0.275-0.404 0.275-0.663 0-0.518-0.42-0.937-0.937-0.937-0.259 0-0.493 0.105-0.663 0.275l-0.234 0.234v-0.362c0-0.518-0.42-0.937-0.937-0.937s-0.937 0.42-0.937 0.937v0 0.362l-0.256-0.256c-0.17-0.17-0.404-0.275-0.663-0.275-0.518 0-0.937 0.42-0.937 0.937 0 0.259 0.105 0.493 0.275 0.663l0.256 0.256h-0.332c-0.518 0-0.937 0.42-0.937 0.937s0.42 0.937 0.937 0.937v0h0.33l-0.233 0.234c-0.17 0.17-0.275 0.404-0.275 0.663 0 0.518 0.42 0.937 0.937 0.937 0.259 0 0.493-0.105 0.663-0.275l0.233-0.233v0.361c0 0.518 0.42 0.938 0.938 0.938s0.938-0.42 0.938-0.938v0-0.361l0.256 0.256c0.169 0.17 0.404 0.275 0.663 0.275s0.493-0.105 0.663-0.275l0-0c0.366-0.366 0.366-0.96 0-1.326l-0.256-0.256h0.331c0.517 0 0.937-0.421 0.937-0.938z"></path>
<path fill="#fff4f4" style="fill: var(--color3, #fff4f4)" d="M10.781 23.375c0.517 0 0.938-0.421 0.938-0.937s-0.421-0.937-0.938-0.937-0.937 0.421-0.937 0.937 0.421 0.937 0.937 0.937zM21.219 23.375c0.517 0 0.938-0.421 0.938-0.937s-0.422-0.937-0.938-0.937-0.937 0.421-0.937 0.937 0.421 0.937 0.937 0.937zM5.687 32c0.518 0 0.938-0.421 0.938-0.937s-0.421-0.938-0.937-0.938-0.938 0.421-0.938 0.938c0 0.516 0.421 0.937 0.938 0.937zM26.313 32c0.516 0 0.937-0.421 0.937-0.937s-0.421-0.938-0.938-0.938c-0.516 0-0.937 0.421-0.937 0.938 0 0.516 0.421 0.937 0.937 0.937z"></path>
<path fill="#fff4f4" style="fill: var(--color3, #fff4f4)" d="M16 19.938c-1.312-0.001-2.517-0.461-3.463-1.227l0.010 0.008c-0.551-0.448-1.007-0.988-1.35-1.6l-0.014-0.028c-0.716 0.489-1.6 0.782-2.552 0.784h-0c-2.089-0.006-3.848-1.409-4.393-3.324l-0.008-0.032c-2.373-0.179-4.23-2.148-4.23-4.55v-0c0.003-2.406 1.865-4.376 4.227-4.55l0.015-0.001c0.242-0.832 0.69-1.541 1.285-2.092l0.003-0.003c0.809-0.753 1.898-1.215 3.094-1.215 0.002 0 0.004 0 0.005 0h-0c0.91 0 1.792 0.276 2.535 0.772 0.356-0.648 0.813-1.195 1.357-1.64l0.010-0.008c0.938-0.766 2.149-1.23 3.468-1.232h0c1.26 0 2.492 0.437 3.468 1.232 0.561 0.456 1.025 1.018 1.367 1.648 0.712-0.482 1.589-0.77 2.534-0.772h0c1.154 0 2.255 0.432 3.099 1.215 0.599 0.554 1.047 1.263 1.281 2.063l0.008 0.032c2.377 0.174 4.239 2.145 4.239 4.551 0 2.402-1.856 4.37-4.212 4.549l-0.015 0.001c-0.553 1.947-2.312 3.35-4.4 3.355h-0.001c-0.953-0.001-1.837-0.294-2.569-0.793l0.016 0.010c-0.357 0.64-0.813 1.18-1.354 1.619l-0.010 0.008c-0.936 0.758-2.14 1.218-3.452 1.219h-0z"></path>
<path fill="#f6efea" style="fill: var(--color4, #f6efea)" d="M30.458 6.549c-0.722-0.64-1.656-1.055-2.685-1.13l-0.015-0.001c-0.242-0.832-0.69-1.541-1.286-2.093l-0.003-0.003c-0.809-0.753-1.898-1.215-3.094-1.215-0.002 0-0.004 0-0.005 0h0c-0.909 0-1.792 0.276-2.534 0.772-0.356-0.648-0.814-1.195-1.357-1.64l-0.010-0.008c-0.938-0.766-2.149-1.23-3.468-1.232h-0v19.938c1.312-0.001 2.517-0.461 3.463-1.227l-0.010 0.008c0.551-0.448 1.007-0.988 1.35-1.6l0.014-0.028c0.746 0.503 1.636 0.784 2.553 0.784 2.082 0 3.867-1.417 4.4-3.356 2.372-0.18 4.229-2.148 4.229-4.551 0-1.359-0.594-2.579-1.536-3.415l-0.005-0.004z"></path>
<path fill="#4793ff" style="fill: var(--color2, #4793ff)" d="M19.531 28.437c0-0.517-0.42-0.937-0.937-0.937h-0.33l0.233-0.233c0.155-0.167 0.251-0.392 0.251-0.638 0-0.518-0.42-0.938-0.938-0.938-0.247 0-0.471 0.095-0.639 0.251l0.001-0.001-0.234 0.233v-0.362c0-0.517-0.42-0.937-0.937-0.937v7.125c0.518 0 0.937-0.421 0.937-0.937v-0.362l0.256 0.256c0.169 0.17 0.404 0.276 0.663 0.276s0.494-0.105 0.663-0.276l0-0c0.366-0.366 0.366-0.96 0-1.326l-0.256-0.256h0.331c0.517 0 0.937-0.421 0.937-0.938z"></path>
</symbol>
<symbol id="icon-Icono2" viewBox="0 0 41 32">
<path fill="#eee1dc" style="fill: var(--color5, #eee1dc)" d="M34.856 22.43c-4.302 0-14.279-3.141-18.705-7.058-1.632-1.445-2.459-2.932-2.459-4.421 0.004-3.312 2.689-5.995 6.002-5.995 0.59 0 1.16 0.085 1.698 0.244l-0.042-0.011c0.835-2.369 3.054-4.037 5.663-4.037 0.003 0 0.005 0 0.008 0h-0c2.165 0 4.147 1.178 5.203 3.014 0.151-0.013 0.326-0.021 0.503-0.021 3.315 0 6.002 2.687 6.002 6.002 0 0.404-0.040 0.799-0.116 1.181l0.006-0.038c1.724 1.077 2.856 2.962 2.863 5.112v0.001c0 1.575-0.634 3.046-1.785 4.14-1.050 0.998-2.492 1.653-4.063 1.847-0.22 0.026-0.475 0.042-0.734 0.042-0.016 0-0.031-0-0.047-0h0.002z"></path>
<path fill="#e0d2cd" style="fill: var(--color6, #e0d2cd)" d="M38.617 11.289c0.070-0.343 0.11-0.738 0.11-1.142 0-3.315-2.687-6.002-6.002-6.002-0.177 0-0.352 0.008-0.526 0.023l0.023-0.002c-0.963-1.649-2.647-2.788-4.609-2.985l-0.025-0.002v19.864c2.856 0.872 5.527 1.387 7.268 1.387 0.286 0 0.546-0.014 0.779-0.041 1.57-0.193 3.013-0.849 4.063-1.847 1.1-1.036 1.785-2.502 1.785-4.128 0-0.005 0-0.009-0-0.014v0.001c-0.008-2.151-1.14-4.035-2.839-5.097l-0.025-0.015z"></path>
<path fill="#fff4f4" style="fill: var(--color3, #fff4f4)" d="M17.268 30.848c-1.45-0.001-2.782-0.508-3.828-1.355l0.011 0.009c-0.55-0.447-1.013-0.976-1.376-1.572l-0.015-0.027c-0.754 0.468-1.667 0.745-2.646 0.747h-0c-2.272-0.007-4.193-1.498-4.846-3.555l-0.010-0.036c-2.571-0.273-4.557-2.429-4.558-5.050v-0c0.004-2.625 1.996-4.783 4.55-5.051l0.022-0.002c0.263-0.831 0.738-1.585 1.391-2.189 0.9-0.837 2.111-1.351 3.442-1.351 0.002 0 0.005 0 0.007 0h-0c0.935 0 1.843 0.261 2.626 0.735 0.378-0.632 0.843-1.168 1.385-1.613l0.011-0.009c1.037-0.846 2.375-1.36 3.833-1.361h0c1.393 0 2.753 0.484 3.832 1.361 0.559 0.455 1.031 1.007 1.396 1.62 0.749-0.463 1.658-0.737 2.63-0.737 1.333 0 2.545 0.515 3.449 1.357l-0.003-0.003c0.652 0.604 1.127 1.358 1.39 2.189 2.575 0.269 4.566 2.428 4.566 5.053 0 2.619-1.983 4.775-4.529 5.049l-0.022 0.002c-0.662 2.093-2.584 3.584-4.855 3.591h-0.001c-0.979-0.001-1.893-0.279-2.668-0.759l0.022 0.013c-0.365 0.607-0.836 1.15-1.393 1.599-1.034 0.837-2.364 1.345-3.814 1.346h-0z"></path>
<path fill="#f6efea" style="fill: var(--color4, #f6efea)" d="M32.818 16.201c-0.767-0.68-1.75-1.132-2.833-1.245l-0.022-0.002c-0.28-0.868-0.76-1.605-1.387-2.186l-0.003-0.003c-0.9-0.837-2.111-1.351-3.442-1.351-0.003 0-0.006 0-0.009 0h0c-0.933 0-1.842 0.261-2.625 0.735-0.378-0.632-0.843-1.168-1.385-1.613l-0.011-0.009c-1.037-0.846-2.375-1.36-3.833-1.361h-0v21.681c1.45-0.001 2.782-0.509 3.828-1.355l-0.011 0.009c0.556-0.449 1.026-0.992 1.391-1.599 0.788 0.481 1.704 0.747 2.647 0.747 2.272-0.007 4.193-1.498 4.846-3.555l0.010-0.036c2.571-0.274 4.556-2.432 4.556-5.053 0-1.512-0.661-2.87-1.71-3.801l-0.005-0.005z"></path>
</symbol>
<symbol id="icon-Icono3" viewBox="0 0 32 32">
<path fill="#fdbf00" style="fill: var(--color7, #fdbf00)" d="M16 25.375c-5.169 0-9.375-4.206-9.375-9.375s4.206-9.375 9.375-9.375c0.517 0 0.937 0.421 0.937 0.937v16.875c0 0.518-0.42 0.938-0.937 0.938z"></path>
<path fill="#7dd5f4" style="fill: var(--color1, #7dd5f4)" d="M31.063 15.062h-1.458l0.714-1.237c0.079-0.134 0.125-0.296 0.125-0.469 0-0.518-0.42-0.937-0.937-0.937-0.345 0-0.647 0.187-0.809 0.464l-0.002 0.004-1.255 2.174h-9.177l6.49-6.489 2.426 0.649c0.060 0.014 0.129 0.021 0.199 0.021 0.518 0 0.938-0.42 0.938-0.938 0-0.416-0.271-0.769-0.646-0.892l-0.007-0.002-1.38-0.369 0.942-0.942c0.17-0.17 0.275-0.404 0.275-0.663 0-0.518-0.42-0.937-0.937-0.937-0.259 0-0.493 0.105-0.663 0.275v0l-0.942 0.942-0.369-1.381c-0.12-0.389-0.477-0.666-0.898-0.666-0.518 0-0.938 0.42-0.938 0.938 0 0.076 0.009 0.149 0.026 0.22l-0.001-0.006 0.649 2.426-6.489 6.489v-9.177l2.175-1.255c0.282-0.165 0.469-0.467 0.469-0.812 0-0.518-0.42-0.938-0.938-0.938-0.173 0-0.334 0.047-0.473 0.128l0.004-0.002-1.237 0.714v-1.457c0-0.518-0.42-0.937-0.937-0.937s-0.937 0.42-0.937 0.937v0 30.126c0 0.518 0.42 0.937 0.937 0.937s0.937-0.42 0.937-0.937v0-1.458l1.238 0.714c0.134 0.079 0.296 0.125 0.469 0.125 0.518 0 0.937-0.42 0.937-0.937 0-0.345-0.187-0.647-0.464-0.809l-0.004-0.002-2.175-1.255v-9.177l6.49 6.49-0.65 2.426c-0.023 0.077-0.036 0.166-0.036 0.258 0 0.518 0.42 0.937 0.937 0.937 0.437 0 0.804-0.299 0.908-0.704l0.001-0.006 0.37-1.38 0.942 0.942c0.169 0.17 0.404 0.276 0.663 0.276s0.494-0.105 0.663-0.276l0-0c0.367-0.366 0.367-0.959 0-1.326l-0.942-0.942 1.381-0.369c0.389-0.12 0.666-0.477 0.666-0.898 0-0.518-0.42-0.938-0.938-0.938-0.076 0-0.149 0.009-0.22 0.026l0.006-0.001-2.426 0.649-6.49-6.489h9.178l1.255 2.175c0.165 0.282 0.467 0.469 0.812 0.469 0.518 0 0.938-0.42 0.938-0.938 0-0.173-0.047-0.334-0.128-0.473l0.002 0.004-0.714-1.237h1.457c0.518 0 0.937-0.42 0.937-0.937s-0.42-0.937-0.937-0.937v0z"></path>
<path fill="#fdbf00" style="fill: var(--color7, #fdbf00)" d="M3.941 16.937h-3.003c-0.518 0-0.937-0.42-0.937-0.937s0.42-0.937 0.937-0.937v0h3.003c0.518 0 0.937 0.42 0.937 0.937s-0.42 0.937-0.937 0.937v0zM7.472 8.411c-0.24 0-0.479-0.091-0.663-0.274l-2.123-2.125c-0.17-0.17-0.275-0.404-0.275-0.663 0-0.518 0.42-0.937 0.937-0.937 0.259 0 0.493 0.105 0.663 0.275l2.124 2.123c0.17 0.17 0.275 0.404 0.275 0.663 0 0.518-0.42 0.937-0.937 0.937-0 0-0.001 0-0.001 0h0zM5.349 27.589c-0 0-0 0-0 0-0.518 0-0.937-0.42-0.937-0.937 0-0.259 0.105-0.493 0.275-0.663l2.126-2.126c0.17-0.17 0.404-0.275 0.663-0.275 0.518 0 0.937 0.42 0.937 0.937 0 0.259-0.105 0.493-0.275 0.663v0l-2.124 2.124c-0.183 0.183-0.423 0.274-0.663 0.274zM11.481 5.757c-0.37 0-0.722-0.221-0.869-0.586l-1.127-2.785c-0.043-0.104-0.068-0.225-0.068-0.351 0-0.518 0.42-0.937 0.937-0.937 0.391 0 0.726 0.24 0.867 0.58l0.002 0.006 1.126 2.784c0.043 0.104 0.069 0.225 0.069 0.352 0 0.518-0.42 0.937-0.937 0.937-0 0-0 0-0 0v0zM2.036 22.583c-0.517-0.001-0.936-0.421-0.936-0.938 0-0.39 0.238-0.725 0.578-0.866l0.006-0.002 2.784-1.126c0.104-0.043 0.225-0.068 0.352-0.068 0.518 0 0.938 0.42 0.938 0.938 0 0.391-0.24 0.727-0.58 0.867l-0.006 0.002-2.784 1.125c-0.104 0.044-0.224 0.069-0.351 0.070h-0zM10.288 30.875c-0.517-0-0.937-0.42-0.937-0.937 0-0.128 0.026-0.25 0.072-0.362l-0.002 0.006 1.139-2.779c0.152-0.324 0.476-0.544 0.851-0.544 0.518 0 0.938 0.42 0.938 0.938 0 0.113-0.020 0.222-0.057 0.323l0.002-0.006-1.138 2.779c-0.144 0.345-0.478 0.582-0.868 0.582-0 0-0 0-0.001 0h0zM4.841 12.365c-0.119 0-0.239-0.023-0.355-0.070l-2.779-1.138c-0.344-0.144-0.582-0.478-0.582-0.868 0-0.518 0.42-0.938 0.938-0.938 0.128 0 0.251 0.026 0.362 0.072l-0.006-0.002 2.779 1.138c0.346 0.143 0.585 0.478 0.585 0.869 0 0.518-0.42 0.937-0.937 0.937-0.002 0-0.003 0-0.005 0h0z"></path>
<path fill="#4793ff" style="fill: var(--color2, #4793ff)" d="M31.063 15.062h-1.458l0.714-1.237c0.079-0.134 0.125-0.296 0.125-0.469 0-0.518-0.42-0.937-0.937-0.937-0.345 0-0.647 0.187-0.809 0.464l-0.002 0.004-1.255 2.174h-9.177l6.49-6.489 2.426 0.649c0.060 0.014 0.129 0.021 0.199 0.021 0.518 0 0.938-0.42 0.938-0.938 0-0.416-0.271-0.769-0.646-0.892l-0.007-0.002-1.38-0.369 0.942-0.942c0.17-0.17 0.275-0.404 0.275-0.663 0-0.518-0.42-0.937-0.937-0.937-0.259 0-0.493 0.105-0.663 0.275v0l-0.942 0.942-0.369-1.381c-0.12-0.389-0.477-0.666-0.898-0.666-0.518 0-0.938 0.42-0.938 0.938 0 0.076 0.009 0.149 0.026 0.22l-0.001-0.006 0.649 2.426-6.489 6.489v-9.177l2.175-1.255c0.282-0.165 0.469-0.467 0.469-0.812 0-0.518-0.42-0.938-0.938-0.938-0.173 0-0.334 0.047-0.473 0.128l0.004-0.002-1.237 0.714v-1.457c0-0.517-0.42-0.937-0.937-0.937v32c0.518 0 0.937-0.421 0.937-0.938v-1.456l1.238 0.714c0.134 0.079 0.296 0.125 0.469 0.125 0.518 0 0.937-0.42 0.937-0.937 0-0.345-0.187-0.647-0.464-0.809l-0.004-0.002-2.175-1.255v-9.178l6.49 6.49-0.65 2.426c-0.023 0.077-0.036 0.166-0.036 0.258 0 0.518 0.42 0.937 0.937 0.937 0.437 0 0.804-0.299 0.908-0.704l0.001-0.006 0.37-1.38 0.942 0.942c0.169 0.17 0.404 0.276 0.663 0.276s0.494-0.105 0.663-0.276l0-0c0.367-0.366 0.367-0.959 0-1.326l-0.942-0.942 1.381-0.369c0.389-0.12 0.666-0.477 0.666-0.898 0-0.518-0.42-0.938-0.938-0.938-0.076 0-0.149 0.009-0.22 0.026l0.006-0.001-2.426 0.649-6.49-6.489h9.178l1.255 2.175c0.165 0.282 0.467 0.469 0.812 0.469 0.518 0 0.938-0.42 0.938-0.938 0-0.173-0.047-0.334-0.128-0.473l0.002 0.004-0.714-1.237h1.457c0.518 0 0.937-0.42 0.937-0.937s-0.42-0.937-0.937-0.937v0z"></path>
</symbol>
<symbol id="icon-Icono4" viewBox="0 0 31 32">
<path fill="#fdbf00" style="fill: var(--color7, #fdbf00)" d="M15.556 24.204c-4.658 0-8.446-3.796-8.446-8.462s3.789-8.462 8.446-8.462c4.658 0 8.446 3.796 8.446 8.462s-3.789 8.462-8.446 8.462zM15.556 5.129c-0.503 0-0.911-0.409-0.911-0.914v-3.143c-0.001-0.012-0.001-0.026-0.001-0.040 0-0.504 0.408-0.912 0.912-0.912s0.912 0.408 0.912 0.912c0 0.014-0 0.028-0.001 0.042l0-0.002v3.143c0 0.505-0.408 0.914-0.911 0.914z"></path>
<path fill="#ff8856" style="fill: var(--color8, #ff8856)" d="M30.2 16.655h-3.138c-0.504 0-0.913-0.409-0.913-0.913s0.409-0.913 0.913-0.913h3.138c0.504 0 0.913 0.409 0.913 0.913s-0.409 0.913-0.913 0.913v0z"></path>
<path fill="#fdbf00" style="fill: var(--color7, #fdbf00)" d="M15.556 31.326c-0.503 0-0.911-0.409-0.911-0.914v-3.143c-0.001-0.012-0.001-0.026-0.001-0.040 0-0.504 0.408-0.912 0.912-0.912s0.912 0.408 0.912 0.912c0 0.014-0 0.028-0.001 0.042l0-0.002v3.143c0 0.505-0.408 0.914-0.911 0.914zM4.050 16.655h-3.138c-0.504 0-0.913-0.409-0.913-0.913s0.409-0.913 0.913-0.913h3.138c0.504 0 0.913 0.409 0.913 0.913s-0.409 0.913-0.913 0.913v0z"></path>
<path fill="#ff8856" style="fill: var(--color8, #ff8856)" d="M23.692 8.505c-0.504-0.001-0.911-0.41-0.911-0.914 0-0.252 0.102-0.48 0.267-0.645l-0 0 2.219-2.222c0.356-0.357 0.933-0.357 1.289 0 0.356 0.356 0.356 0.933 0 1.291l-2.219 2.222c-0.178 0.179-0.411 0.268-0.644 0.268zM25.911 27.028c-0.234 0-0.467-0.089-0.645-0.267l-2.219-2.223c-0.356-0.356-0.356-0.935 0-1.292s0.933-0.356 1.289 0l2.219 2.222c0.165 0.165 0.266 0.393 0.266 0.645 0 0.504-0.407 0.913-0.911 0.915h-0z"></path>
<path fill="#fdbf00" style="fill: var(--color7, #fdbf00)" d="M5.2 27.029c-0.503-0.003-0.91-0.411-0.91-0.915 0-0.251 0.101-0.479 0.266-0.645l-0 0 2.22-2.222c0.356-0.357 0.933-0.357 1.289 0 0.356 0.356 0.356 0.933 0 1.291l-2.219 2.222c-0.178 0.179-0.412 0.268-0.644 0.268zM7.42 8.505c-0.234 0-0.467-0.089-0.644-0.268l-2.219-2.222c-0.356-0.357-0.356-0.936 0-1.292s0.933-0.356 1.289 0l2.219 2.223c0.164 0.165 0.266 0.393 0.266 0.644 0 0.504-0.407 0.912-0.91 0.915h-0z"></path>
<path fill="#ff8856" style="fill: var(--color8, #ff8856)" d="M19.971 6.012c-0.503-0.002-0.911-0.41-0.911-0.914 0-0.126 0.026-0.247 0.072-0.356l-0.002 0.006 1.204-2.903c0.141-0.332 0.465-0.561 0.842-0.561 0.504 0 0.912 0.408 0.912 0.912 0 0.127-0.026 0.247-0.072 0.357l0.002-0.006-1.204 2.903c-0.141 0.333-0.465 0.563-0.842 0.563-0 0-0 0-0 0v0zM29.078 22.285c-0.116 0-0.236-0.022-0.349-0.070l-2.898-1.206c-0.313-0.15-0.525-0.463-0.525-0.827 0-0.505 0.409-0.914 0.914-0.914 0.111 0 0.218 0.020 0.317 0.056l-0.006-0.002 2.898 1.206c0.332 0.142 0.56 0.466 0.56 0.843 0 0.504-0.407 0.912-0.91 0.914h-0z"></path>
<path fill="#fdbf00" style="fill: var(--color7, #fdbf00)" d="M9.935 30.203c-0.504-0.001-0.912-0.41-0.912-0.914 0-0.126 0.026-0.247 0.072-0.356l-0.002 0.006 1.204-2.902c0.141-0.332 0.465-0.561 0.842-0.561 0.504 0 0.912 0.408 0.912 0.912 0 0.126-0.026 0.247-0.072 0.356l0.002-0.006-1.204 2.903c-0.141 0.333-0.465 0.563-0.842 0.563-0 0-0 0-0 0v0zM4.93 12.232c-0.116 0-0.235-0.022-0.349-0.070l-2.898-1.206c-0.313-0.15-0.525-0.463-0.525-0.827 0-0.505 0.409-0.914 0.914-0.914 0.111 0 0.218 0.020 0.317 0.056l-0.006-0.002 2.898 1.206c0.332 0.142 0.56 0.466 0.56 0.843 0 0.504-0.407 0.912-0.91 0.914h-0z"></path>
<path fill="#ff8856" style="fill: var(--color8, #ff8856)" d="M26.191 12.257c-0.503-0.002-0.911-0.41-0.911-0.914 0-0.378 0.229-0.702 0.557-0.841l0.006-0.002 2.901-1.2c0.093-0.035 0.2-0.055 0.312-0.055 0.505 0 0.914 0.409 0.914 0.914 0 0.365-0.214 0.68-0.524 0.827l-0.006 0.002-2.901 1.2c-0.114 0.047-0.231 0.069-0.347 0.069zM21.144 30.216c-0.358 0-0.698-0.213-0.843-0.565l-1.197-2.905c-0.044-0.103-0.069-0.223-0.069-0.348 0-0.504 0.408-0.912 0.912-0.912 0.378 0 0.702 0.23 0.84 0.557l0.002 0.006 1.197 2.906c0.043 0.103 0.069 0.222 0.069 0.348 0 0.504-0.408 0.912-0.911 0.914h-0z"></path>
<path fill="#fdbf00" style="fill: var(--color7, #fdbf00)" d="M2.020 22.253c-0.503-0.002-0.911-0.41-0.911-0.914 0-0.378 0.229-0.702 0.557-0.841l0.006-0.002 2.901-1.2c0.093-0.035 0.2-0.055 0.312-0.055 0.505 0 0.914 0.409 0.914 0.914 0 0.365-0.214 0.68-0.524 0.827l-0.006 0.002-2.901 1.2c-0.114 0.047-0.231 0.069-0.347 0.069zM11.164 6.001c-0.357 0-0.697-0.213-0.842-0.564l-1.198-2.907c-0.044-0.103-0.069-0.223-0.069-0.348 0-0.504 0.408-0.912 0.912-0.912 0.378 0 0.702 0.23 0.84 0.557l0.002 0.006 1.197 2.907c0.044 0.103 0.069 0.223 0.069 0.348 0 0.504-0.407 0.912-0.911 0.914h-0z"></path>
<path fill="#ff8856" style="fill: var(--color8, #ff8856)" d="M15.556 0.158v4.971c0.503 0 0.911-0.409 0.911-0.914v-3.143c0-0.505-0.408-0.914-0.911-0.914zM15.556 7.28v16.924c4.658 0 8.446-3.796 8.446-8.462s-3.789-8.462-8.446-8.462zM15.556 26.356v4.971c0.503 0 0.911-0.409 0.911-0.914v-3.143c0-0.505-0.408-0.914-0.911-0.914z"></path>
</symbol>
<symbol id="icon-Icono5" viewBox="0 0 34 32">
<path fill="#fdbf00" style="fill: var(--color7, #fdbf00)" d="M20.383 21.734c-4.081 0-7.418-3.307-7.457-7.402-0.038-4.119 3.278-7.502 7.389-7.539h0.070c4.081 0 7.418 3.306 7.456 7.402 0.038 4.119-3.278 7.502-7.389 7.539h-0.069z"></path>
<path fill="#ff8856" style="fill: var(--color8, #ff8856)" d="M20.385 6.792h-0.002v14.943l0.069-0.001c4.111-0.038 7.427-3.42 7.389-7.539-0.038-4.096-3.375-7.403-7.457-7.403z"></path>
<path fill="#fdbf00" style="fill: var(--color7, #fdbf00)" d="M20.412 5.372c-0.544 0-0.989-0.439-0.994-0.987l-0.024-2.696c-0-0.003-0-0.007-0-0.011 0-0.546 0.44-0.989 0.985-0.995h0.010c0.544 0 0.989 0.44 0.994 0.987l0.024 2.696c0 0.003 0 0.007 0 0.011 0 0.546-0.44 0.989-0.985 0.995h-0.010z"></path>
<path fill="#ff8856" style="fill: var(--color8, #ff8856)" d="M30.254 15.169c-0.001 0-0.003 0-0.005 0-0.55 0-0.996-0.446-0.996-0.996 0-0.549 0.443-0.994 0.991-0.996h0l2.702-0.024c0.001 0 0.003 0 0.005 0 0.55 0 0.996 0.446 0.996 0.996 0 0.548-0.443 0.993-0.991 0.996h-0l-2.703 0.025zM27.418 8.204c-0.549-0.002-0.994-0.447-0.994-0.997 0-0.271 0.109-0.518 0.285-0.697l-0 0 1.886-1.924c0.18-0.184 0.432-0.298 0.709-0.298 0.272 0 0.518 0.109 0.697 0.286l-0-0c0.392 0.385 0.398 1.015 0.013 1.408l-1.886 1.925c-0.194 0.198-0.452 0.298-0.709 0.298z"></path>
<path fill="#fdbf00" style="fill: var(--color7, #fdbf00)" d="M13.46 8.333c-0.251 0-0.502-0.095-0.696-0.286l-1.92-1.889c-0.184-0.181-0.298-0.433-0.298-0.711 0-0.272 0.109-0.518 0.285-0.698l-0 0c0.18-0.184 0.432-0.298 0.709-0.298 0.272 0 0.518 0.109 0.697 0.286l1.92 1.889c0.183 0.181 0.296 0.432 0.296 0.709 0 0.549-0.443 0.994-0.992 0.998h-0z"></path>
<path fill="#ff8856" style="fill: var(--color8, #ff8856)" d="M24.207 6.095c-0.549-0.002-0.994-0.447-0.994-0.997 0-0.135 0.027-0.263 0.075-0.38l-0.002 0.007 1.010-2.499c0.152-0.367 0.507-0.621 0.921-0.621 0.549 0 0.994 0.445 0.994 0.994 0 0.135-0.027 0.263-0.075 0.38l0.002-0.007-1.009 2.5c-0.157 0.388-0.529 0.623-0.922 0.623zM32.146 19.983c-0.124 0-0.25-0.023-0.372-0.073l-2.495-1.012c-0.346-0.162-0.581-0.506-0.581-0.906 0-0.551 0.446-0.997 0.997-0.997 0.119 0 0.232 0.021 0.338 0.059l-0.007-0.002 2.494 1.011c0.367 0.152 0.621 0.508 0.621 0.923 0 0.55-0.445 0.995-0.994 0.997h-0z"></path>
<path fill="#fdbf00" style="fill: var(--color7, #fdbf00)" d="M11.355 11.549c-0.125 0-0.252-0.023-0.373-0.073l-2.495-1.013c-0.346-0.162-0.581-0.506-0.581-0.906 0-0.551 0.446-0.997 0.997-0.997 0.118 0 0.232 0.021 0.338 0.059l-0.007-0.002 2.494 1.011c0.367 0.152 0.621 0.508 0.621 0.923 0 0.55-0.445 0.995-0.994 0.997h-0z"></path>
<path fill="#ff8856" style="fill: var(--color8, #ff8856)" d="M29.592 11.404c-0.549-0.003-0.992-0.448-0.992-0.997 0-0.409 0.246-0.76 0.598-0.914l0.006-0.002 2.477-1.054c0.104-0.040 0.224-0.063 0.349-0.063 0.551 0 0.997 0.446 0.997 0.997 0 0.396-0.23 0.737-0.564 0.898l-0.006 0.003-2.479 1.052c-0.126 0.053-0.258 0.079-0.388 0.079z"></path>
<path fill="#fdbf00" style="fill: var(--color7, #fdbf00)" d="M16.654 6.156c-0.388 0-0.755-0.228-0.915-0.608l-1.050-2.482c-0.050-0.115-0.079-0.248-0.079-0.388 0-0.549 0.445-0.994 0.994-0.994 0.409 0 0.76 0.247 0.913 0.6l0.002 0.006 1.050 2.482c0.050 0.114 0.079 0.248 0.079 0.388 0 0.55-0.445 0.995-0.994 0.997h-0z"></path>
<path fill="#fff4f4" style="fill: var(--color3, #fff4f4)" d="M14.782 31.724c-1.889-0.003-3.54-1.017-4.443-2.529l-0.013-0.024c-0.65 0.414-1.441 0.66-2.29 0.661h-0c-1.942-0.007-3.582-1.29-4.125-3.055l-0.008-0.031c-2.199-0.217-3.903-2.057-3.903-4.295 0-0.002 0-0.004 0-0.005v0c0.001-2.244 1.71-4.088 3.898-4.301l0.018-0.001c0.236-0.751 0.648-1.389 1.188-1.89l0.003-0.003c0.765-0.714 1.795-1.152 2.927-1.152 0.843 0 1.63 0.243 2.293 0.663l-0.018-0.010c0.911-1.553 2.572-2.581 4.473-2.583h0c1.901 0.003 3.562 1.030 4.46 2.559l0.013 0.024c0.646-0.409 1.432-0.652 2.276-0.652 1.132 0 2.162 0.438 2.929 1.154l-0.003-0.002c0.562 0.522 0.97 1.174 1.192 1.894 2.205 0.212 3.915 2.054 3.915 4.297 0 0.002 0 0.004 0 0.005v-0c0 0.002 0 0.003 0 0.005 0 2.238-1.704 4.078-3.885 4.294l-0.018 0.001c-0.551 1.795-2.191 3.079-4.132 3.086h-0.001c-0.849-0.001-1.641-0.247-2.308-0.672l0.017 0.010c-0.915 1.537-2.567 2.55-4.455 2.553h-0z"></path>
<path fill="#f6efea" style="fill: var(--color4, #f6efea)" d="M28.106 19.207c-0.659-0.585-1.506-0.972-2.439-1.061l-0.018-0.001c-0.559-1.777-2.192-3.044-4.121-3.045h-0c-0.81 0-1.597 0.233-2.273 0.652-0.911-1.553-2.572-2.581-4.473-2.583h-0v18.556c1.889-0.003 3.54-1.017 4.443-2.529l0.013-0.024c0.679 0.426 1.473 0.661 2.29 0.661 1.942-0.007 3.582-1.29 4.125-3.055l0.008-0.031c2.199-0.217 3.903-2.057 3.903-4.295 0-0.002 0-0.004 0-0.005v0c0-0 0-0 0-0 0-1.287-0.562-2.442-1.454-3.235l-0.004-0.004z"></path>
<path fill="#ff8856" style="fill: var(--color8, #ff8856)" d="M21.382 1.671c-0.004-0.545-0.447-0.986-0.993-0.987h-0.005v4.688l0.029 0.001h0.010c0.545-0.005 0.985-0.449 0.985-0.995 0-0.004-0-0.008-0-0.011v0.001l-0.025-2.696z"></path>
</symbol>
<symbol id="icon-Presion" viewBox="0 0 32 32">
<path fill="#fff" style="fill: var(--color9, #fff)" opacity="0.54" d="M18.49 4.12c0.202-0.378 0.32-0.827 0.32-1.304 0-1.553-1.257-2.812-2.809-2.816h-0c-1.552 0.004-2.808 1.264-2.808 2.816 0 0.477 0.118 0.926 0.328 1.319l-0.007-0.015c-6.565 1.179-11.562 6.931-11.562 13.83 0 7.746 6.302 14.050 14.050 14.050s14.050-6.304 14.050-14.050c0-6.899-4.997-12.651-11.56-13.83zM16 1.875c0.011-0 0.025-0.001 0.038-0.001 0.519 0 0.939 0.42 0.939 0.939s-0.421 0.939-0.939 0.939c-0.014 0-0.028-0-0.041-0.001l0.002 0c-0.501-0.022-0.9-0.434-0.9-0.938s0.399-0.917 0.899-0.938l0.002-0zM16 30.125c-6.714 0-12.176-5.461-12.176-12.176 0-6.71 5.464-12.173 12.176-12.173s12.176 5.462 12.176 12.176-5.462 12.176-12.176 12.176z"></path>
<path fill="#fff" style="fill: var(--color9, #fff)" opacity="0.54" d="M23.333 10.69l-0.042-0.045-0.046-0.042c-1.859-1.84-4.417-2.978-7.24-2.978-0.002 0-0.003 0-0.005 0h0c-2.832 0-5.4 1.146-7.267 2.998l-0.024 0.021-0.019 0.021c-1.862 1.863-3.014 4.436-3.014 7.278 0 0.002 0 0.005 0 0.007v-0c0 0.517 0.419 0.938 0.938 0.938h1.062c0.518 0 0.938-0.42 0.938-0.938s-0.42-0.938-0.938-0.938h-0.072c0.19-1.665 0.839-3.15 1.817-4.358l-0.012 0.016 0.051 0.053c0.169 0.171 0.404 0.276 0.663 0.276s0.494-0.106 0.663-0.276l0-0c0.17-0.17 0.275-0.404 0.275-0.663s-0.105-0.493-0.275-0.663l-0.051-0.051c1.19-0.959 2.67-1.603 4.289-1.788l0.039-0.004v0.072c0 0.518 0.42 0.938 0.938 0.938s0.938-0.42 0.938-0.938v-0.074c1.658 0.19 3.137 0.836 4.343 1.808l-0.016-0.013-0.048 0.050c-0.161 0.168-0.26 0.396-0.26 0.648 0 0.518 0.42 0.938 0.938 0.938 0.251 0 0.479-0.099 0.647-0.259l-0 0 0.051-0.051c0.963 1.189 1.612 2.669 1.801 4.289l0.004 0.039h-0.085c-0.518 0-0.938 0.42-0.938 0.938s0.42 0.938 0.938 0.938h1.077c0.517-0.001 0.936-0.42 0.936-0.938 0-0.001 0-0.001 0-0.002v0c-0.002-2.828-1.145-5.388-2.992-7.247l0 0.001z"></path>
<path fill="#fff" style="fill: var(--color9, #fff)" opacity="0.54" d="M20.251 13.699c-0.17-0.17-0.404-0.275-0.663-0.275s-0.494 0.105-0.663 0.275l-3.914 3.914c-0.434-0.208-0.918-0.302-1.408-0.267-0.495 0.028-0.886 0.437-0.886 0.936 0 0.518 0.42 0.938 0.938 0.938 0.028 0 0.056-0.001 0.083-0.004l-0.004 0c0.020-0.001 0.043-0.002 0.066-0.002 0.517 0 0.936 0.419 0.936 0.936 0 0.019-0.001 0.039-0.002 0.058l0-0.003c-0.001 0.014-0.001 0.031-0.001 0.048 0 0.518 0.42 0.938 0.938 0.938 0.497 0 0.903-0.386 0.936-0.874l0-0.003c0.003-0.048 0.005-0.104 0.005-0.161 0-0.441-0.101-0.859-0.282-1.23l0.007 0.017 3.915-3.915c0.169-0.17 0.274-0.404 0.274-0.662s-0.105-0.493-0.274-0.662v0zM21.376 24.688h-10.752c-0.518 0-0.938 0.42-0.938 0.938s0.42 0.938 0.938 0.938h10.752c0.518 0 0.938-0.42 0.938-0.938s-0.42-0.938-0.938-0.938v0z"></path>
</symbol>
<symbol id="icon-Humedad" viewBox="0 0 32 32">
<path fill="#fff" style="fill: var(--color9, #fff)" opacity="0.54" d="M28.621 9.398c-0.61-1.050-1.204-1.938-1.846-2.786l0.049 0.068c-0.827-1.078-1.317-1.461-1.869-1.461-0.522 0-0.947 0.366-1.424 0.915-0.352 0.405-0.771 0.966-1.213 1.624-0.634 0.942-1.24 1.968-1.76 2.965-0.632-1.221-1.116-2.086-1.621-2.938l0.161 0.295c-1.203-2.058-2.486-4-3.613-5.469-1.848-2.41-2.544-2.611-3.050-2.611s-1.2 0.202-3.048 2.611c-1.126 1.469-2.41 3.411-3.613 5.469-1.445 2.474-4.808 8.64-4.808 12.451 0 6.325 5.146 11.469 11.469 11.469 5.934 0 10.829-4.528 11.411-10.312 0.331 0.064 0.713 0.101 1.102 0.101 3.356 0 6.077-2.718 6.082-6.073v-0c0-1.906-1.512-4.776-2.411-6.317zM12.437 30.125c-5.296-0.006-9.587-4.298-9.594-9.593v-0.001c0-2.234 1.6-6.358 4.28-11.034 2.39-4.173 4.523-6.858 5.314-7.52 0.792 0.662 2.923 3.346 5.315 7.52 2.68 4.675 4.28 8.8 4.28 11.034-0.006 5.296-4.299 9.588-9.595 9.594h-0.001zM24.957 19.915c-0.371 0-0.736-0.048-1.091-0.144-0.206-2.064-1.184-4.634-2.256-6.925 1.043-2.328 2.59-4.621 3.346-5.498 0.477 0.55 1.322 1.709 2.262 3.371 1.214 2.147 1.939 4.014 1.939 4.995-0.003 2.319-1.881 4.197-4.2 4.2h-0z"></path>
</symbol>
<symbol id="icon-Velocidad" viewBox="0 0 36 32">
<path fill="#fff" style="fill: var(--color9, #fff)" opacity="0.54" d="M28.128 1.159c-1.684 0-3.335 0.581-4.649 1.636-0.238 0.193-0.39 0.485-0.39 0.812 0 0.575 0.467 1.042 1.042 1.042 0.248 0 0.476-0.087 0.654-0.231l-0.002 0.002c0.907-0.732 2.074-1.175 3.344-1.177h0c2.95 0.004 5.34 2.394 5.344 5.344v0c-0.004 2.95-2.394 5.34-5.344 5.344h-19.586c-0.557 0.024-0.999 0.481-0.999 1.041s0.442 1.017 0.997 1.041l0.002 0h19.586c4.1-0.004 7.423-3.326 7.428-7.425v-0c-0.004-4.101-3.327-7.423-7.427-7.428h-0z"></path>
<path fill="#fff" style="fill: var(--color9, #fff)" opacity="0.54" d="M6.546 11.854h11.129c0.575 0 1.042-0.466 1.042-1.042s-0.466-1.042-1.042-1.042h-11.129c-0.575 0-1.042 0.466-1.042 1.042s0.466 1.042 1.042 1.042v0zM17.381 18.103h-16.34c-0.575 0-1.042 0.466-1.042 1.042s0.466 1.042 1.042 1.042h16.34c2.365 0.003 4.281 1.919 4.284 4.284v0c-0.005 2.365-1.924 4.28-4.29 4.28-1.017 0-1.951-0.354-2.686-0.945l0.008 0.006c-0.173-0.133-0.393-0.213-0.631-0.213-0.575 0-1.042 0.466-1.042 1.042 0 0.318 0.143 0.603 0.368 0.795l0.002 0.001c1.125 0.905 2.542 1.403 3.986 1.403 3.516-0.003 6.366-2.852 6.37-6.368v-0c-0.003-3.517-2.853-6.367-6.37-6.37h-0zM1.042 11.854h1.404c0.575 0 1.042-0.466 1.042-1.042s-0.466-1.042-1.042-1.042h-1.404c-0.575 0-1.042 0.466-1.042 1.042s0.466 1.042 1.042 1.042v0z"></path>
<path fill="#fff" style="fill: var(--color9, #fff)" opacity="0.54" d="M13.611 23.292c0-0.575-0.466-1.042-1.042-1.042v0h-6.249c-0.557 0.024-0.999 0.481-0.999 1.041s0.442 1.017 0.997 1.041l0.002 0h6.249c0 0 0 0 0 0 0.575 0 1.041-0.465 1.042-1.040v-0z"></path>
</symbol>
<symbol id="icon-Vector-3" viewBox="0 0 1 32">
<path fill="none" opacity="0.2" stroke="#fff" style="stroke: var(--color1, #fff)" stroke-linejoin="miter" stroke-linecap="butt" stroke-miterlimit="4" stroke-width="0.6809" d="M0.681 0.177v31.376"></path>
</symbol>
</defs>
</svg>
